#!OML:ASF X:\für Bonn\!DataBase\2005_08_12_Daniel\c3d\Daniel.ASF
:FULLY-SPECIFIED
:DEGREES
1
root -3.19043 17.033 -2.88534 308.901 -82.2456 -319.064
lowerback 19.0647 -2.50702 -2.51501
upperback 0.443739 -4.28743 -2.94554
thorax -10.2785 -2.03534 -0.609018
lowerneck 2.44267 1.73443 -4.45945
upperneck 6.85174 2.08696 1.67006
head 1.65954 0.914339 1.28947
rclavicle 3.96575e-014 7.95139e-016
rhumerus 58.5791 -10.772 -115.116
rradius 7.09497
rwrist 85.5955
rhand -16.3977 12.1913
rfingers 7.12502
rthumb 9.81644 -17.5598
lclavicle 3.96575e-014 7.95139e-016
lhumerus 56.4059 4.78744 97.7217
lradius 10.7748
lwrist -67.3949
lhand -14.5479 2.70338
lfingers 7.12502
lthumb 11.6007 32.3623
rfemur 1.3766 9.61274 13.6035
rtibia 31.5944
rfoot -35.4284 -7.46797
rtoes -15.0994
lfemur -8.85572 -11.7645 -22.4589
ltibia 38.1157
lfoot -30.8222 0.139192
ltoes -1.14975
2
root -3.19755 17.0346 -2.89257 309.409 -82.2573 -319.579
lowerback 18.9431 -2.52226 -2.44346
upperback 0.492329 -4.28528 -2.95138
thorax -10.1616 -2.0407 -0.662468
lowerneck 2.56639 1.73729 -4.34133
upperneck 6.79652 2.08809 1.61633
head 1.62143 0.916942 1.24945
rclavicle 2.76839e-014 -1.63003e-014
rhumerus 58.5262 -10.6925 -115.003
rradius 7.12039
rwrist 85.3389
rhand -16.4577 12.1482
rfingers 7.12502
rthumb 9.75862 -17.6057
lclavicle 2.76839e-014 -1.63003e-014
lhumerus 56.328 4.57902 97.4264
lradius 10.9839
lwrist -67.2492
lhand -14.2314 2.70614
lfingers 7.12502
lthumb 11.906 32.3476
rfemur 1.54001 9.96165 13.8397
rtibia 31.4582
rfoot -35.7022 -7.962
rtoes -15.5106
lfemur -8.82557 -11.7426 -22.3555
ltibia 38.0943
lfoot -30.7027 0.0970654
ltoes -1.25098
3
root -3.20436 17.0356 -2.89945 309.846 -82.2589 -320.021
lowerback 18.839 -2.53409 -2.40139
upperback 0.532328 -4.28459 -2.94334
thorax -10.061 -2.04433 -0.682868
lowerneck 2.73707 1.7474 -4.24388
upperneck 6.71114 2.09777 1.53904
head 1.5655 0.923074 1.20462
rclavicle -1.54524e-014 -9.14409e-015
rhumerus 58.4403 -10.6231 -114.851
rradius 7.16161
rwrist 85.0821
rhand -16.445 12.133
rfingers 7.12502
rthumb 9.77083 -17.6203
lclavicle -1.54524e-014 -9.14409e-015
lhumerus 56.2797 4.4653 97.301
lradius 11.1498
lwrist -67.2074
lhand -13.9616 2.7666
lfingers 7.12502
lthumb 12.1661 32.3928
rfemur 1.66519 10.2354 14.0385
rtibia 31.3701
rfoot -35.9158 -8.39968
rtoes -15.8678
lfemur -8.80629 -11.723 -22.2729
ltibia 38.0929
lfoot -30.6066 0.0614888
ltoes -1.41076
4
root -3.21064 17.0341 -2.90632 310.279 -82.2636 -320.494
lowerback 18.7822 -2.54781 -2.37107
upperback 0.589667 -4.28987 -2.92574
thorax -9.96607 -2.04996 -0.682842
lowerneck 2.91614 1.7597 -4.16595
upperneck 6.58633 2.11054 1.46496
head 1.49556 0.931136 1.16375
rclavicle 2.80255e-014 1.11319e-014
rhumerus 58.3436 -10.5369 -114.693
rradius 7.22526
rwrist 84.7623
rhand -16.3826 12.0966
rfingers 7.12502
rthumb 9.83106 -17.6539
lclavicle 2.80255e-014 1.11319e-014
lhumerus 56.2587 4.3638 97.1762
lradius 11.2793
lwrist -67.1353
lhand -13.8088 2.84762
lfingers 7.12502
lthumb 12.3134 32.4651
rfemur 1.80607 10.4457 14.223
rtibia 31.3159
rfoot -36.1192 -8.79877
rtoes -16.2878
lfemur -8.77411 -11.6704 -22.1837
ltibia 38.1078
lfoot -30.4925 0.000735103
ltoes -1.5199
5
root -3.21697 17.0336 -2.91314 310.61 -82.2612 -320.842
lowerback 18.7353 -2.55564 -2.34006
upperback 0.628507 -4.29087 -2.9297
thorax -9.89924 -2.05366 -0.707117
lowerneck 3.09782 1.76669 -4.08677
upperneck 6.47812 2.11464 1.42062
head 1.43078 0.935034 1.1324
rclavicle -2.96872e-014 -2.94201e-014
rhumerus 58.2092 -10.4931 -114.548
rradius 7.33598
rwrist 84.5313
rhand -16.2502 12.0995
rfingers 7.12502
rthumb 9.95877 -17.6449
lclavicle -2.96872e-014 -2.94201e-014
lhumerus 56.21 4.2656 97.0666
lradius 11.3924
lwrist -67.0366
lhand -13.6847 2.89484
lfingers 7.12502
lthumb 12.4331 32.5051
rfemur 1.88796 10.6045 14.3676
rtibia 31.2938
rfoot -36.2477 -9.22361
rtoes -16.6179
lfemur -8.76516 -11.6363 -22.1134
ltibia 38.1312
lfoot -30.413 -0.0526888
ltoes -1.60715
6
root -3.22208 17.0312 -2.91941 311.065 -82.2564 -321.342
lowerback 18.7212 -2.57302 -2.30506
upperback 0.692466 -4.30339 -2.92291
thorax -9.82233 -2.06308 -0.717838
lowerneck 3.24838 1.77433 -4.00326
upperneck 6.36489 2.12298 1.34967
head 1.37008 0.941125 1.09235
rclavicle 2.34255e-014 -1.78906e-014
rhumerus 58.1271 -10.422 -114.4
rradius 7.39953
rwrist 84.2686
rhand -16.1302 12.0618
rfingers 7.12502
rthumb 10.0745 -17.677
lclavicle 2.34255e-014 -1.78906e-014
lhumerus 56.2107 4.24494 97.085
lradius 11.4592
lwrist -67.0458
lhand -13.7013 3.02089
lfingers 7.12502
lthumb 12.4171 32.6321
rfemur 1.97671 10.7098 14.5143
rtibia 31.3075
rfoot -36.364 -9.57139
rtoes -16.9943
lfemur -8.74109 -11.6014 -22.0289
ltibia 38.1646
lfoot -30.3192 -0.162794
ltoes -1.65661
7
root -3.22704 17.0289 -2.92586 311.35 -82.2439 -321.669
lowerback 18.7374 -2.58205 -2.31319
upperback 0.742242 -4.31441 -2.90303
thorax -9.77387 -2.06869 -0.688848
lowerneck 3.46304 1.78973 -3.96046
upperneck 6.19816 2.13816 1.28083
head 1.28138 0.950312 1.05864
rclavicle -3.11999e-014 -3.18055e-015
rhumerus 58.0187 -10.3422 -114.224
rradius 7.47983
rwrist 84.067
rhand -15.9791 12.0359
rfingers 7.12502
rthumb 10.2203 -17.6959
lclavicle -3.11999e-014 -3.18055e-015
lhumerus 56.176 4.12099 96.8899
lradius 11.5217
lwrist -66.6697
lhand -13.79 3.19857
lfingers 7.12502
lthumb 12.3316 32.8149
rfemur 2.03397 10.8179 14.6281
rtibia 31.3602
rfoot -36.4621 -9.87407
rtoes -17.2238
lfemur -8.73142 -11.5193 -21.9626
ltibia 38.2065
lfoot -30.216 -0.282446
ltoes -1.60812
8
root -3.23152 17.025 -2.93119 311.679 -82.2092 -322.04
lowerback 18.7772 -2.59625 -2.29098
upperback 0.791165 -4.33069 -2.91441
thorax -9.74456 -2.07898 -0.708453
lowerneck 3.65159 1.79512 -3.86183
upperneck 6.0582 2.14214 1.22067
head 1.20657 0.955018 1.01895
rclavicle -3.88469e-014 -3.99557e-014
rhumerus 57.9357 -10.2922 -114.082
rradius 7.54351
rwrist 83.8696
rhand -15.8184 11.9862
rfingers 7.12502
rthumb 10.3753 -17.7379
lclavicle -3.88469e-014 -3.99557e-014
lhumerus 56.1658 4.06541 96.8565
lradius 11.5147
lwrist -66.5165
lhand -13.9335 3.32832
lfingers 7.12502
lthumb 12.1932 32.9529
rfemur 2.05004 10.7598 14.675
rtibia 31.4636
rfoot -36.4823 -10.0904
rtoes -17.5793
lfemur -8.73144 -11.4488 -21.9146
ltibia 38.2717
lfoot -30.1193 -0.399778
ltoes -1.71941
9
root -3.23524 17.0197 -2.93694 311.947 -82.1927 -322.356
lowerback 18.841 -2.60598 -2.283
upperback 0.841363 -4.3438 -2.91365
thorax -9.72511 -2.08655 -0.706624
lowerneck 3.90884 1.80998 -3.7956
upperneck 5.83891 2.1556 1.16846
head 1.09517 0.96489 0.985745
rclavicle -1.37286e-015 2.46493e-014
rhumerus 57.8624 -10.233 -113.929
rradius 7.58735
rwrist 83.6713
rhand -15.7107 11.9361
rfingers 7.12502
rthumb 10.4792 -17.7827
lclavicle -1.37286e-015 2.46493e-014
lhumerus 56.1973 4.06112 96.8886
lradius 11.4619
lwrist -66.4588
lhand -14.1252 3.41763
lfingers 7.12502
lthumb 12.0084 33.0531
rfemur 1.98258 10.3592 14.6045
rtibia 31.6346
rfoot -36.3347 -9.94306
rtoes -17.8614
lfemur -8.75673 -11.3075 -21.8417
ltibia 38.3613
lfoot -30.0037 -0.581457
ltoes -1.65157
10
root -3.23831 17.0119 -2.94225 312.273 -82.1637 -322.739
lowerback 18.9483 -2.62069 -2.29158
upperback 0.893554 -4.36679 -2.89413
thorax -9.72483 -2.09712 -0.670463
lowerneck 4.04719 1.82231 -3.73728
upperneck 5.70858 2.17105 1.09812
head 1.03202 0.974571 0.950698
rclavicle 7.64079e-016 2.46493e-014
rhumerus 57.8142 -10.1408 -113.756
rradius 7.6039
rwrist 83.4758
rhand -15.6474 11.8878
rfingers 7.12502
rthumb 10.5403 -17.8279
lclavicle 7.64079e-016 2.46493e-014
lhumerus 56.28 4.16471 97.0875
lradius 11.3756
lwrist -66.5631
lhand -14.3172 3.46452
lfingers 7.12502
lthumb 11.8233 33.1108
rfemur 1.84654 9.61344 14.4121
rtibia 31.8919
rfoot -36.0384 -9.5023
rtoes -18.0193
lfemur -8.79229 -11.1451 -21.7678
ltibia 38.4849
lfoot -29.8778 -0.771362
ltoes -1.7054
